<?xml version="1.0" encoding="utf-8"?>
<!-- Generator: Adobe Illustrator 19.2.1, SVG Export Plug-In . SVG Version: 6.00 Build 0)  -->
<!DOCTYPE svg PUBLIC "-//W3C//DTD SVG 1.1//EN" "http://www.w3.org/Graphics/SVG/1.1/DTD/svg11.dtd">
<svg version="1.1" id="Layer_1" xmlns="http://www.w3.org/2000/svg" xmlns:xlink="http://www.w3.org/1999/xlink" x="0px" y="0px"
	 viewBox="0 0 509 495.3" style="enable-background:new 0 0 509 495.3;" xml:space="preserve">
<style type="text/css">
	.st0{fill:#8A8A8A;}
</style>
<title>arrow-left</title>
<path class="st0" d="M502,231.6H53.7L241.4,23.7c2.6-2.9,2.4-7.3-0.5-9.9c0,0,0,0,0,0l-13.4-12c-2.9-2.6-7.3-2.4-9.9,0.5
	c0,0,0,0,0,0L1.9,241.6c-2.6,3-2.6,7.4,0,10.4l213.9,240.9c2.6,2.9,7,3.2,9.9,0.6c0,0,0,0,0,0l13.5-11.9c2.9-2.6,3.2-7,0.6-9.9
	c0,0,0,0,0,0L55,263.6h447c3.9,0,7-3.1,7-7v-18C509,234.8,505.9,231.6,502,231.6C502,231.6,502,231.6,502,231.6z"/>
</svg>
