<svg id="Layer_1" data-name="Layer 1" xmlns="http://www.w3.org/2000/svg" viewBox="0 0 100 100"><defs><style>.cls-1{fill-rule:evenodd; fill:#373d3d;}</style></defs><title>student</title><g id="student"><path class="cls-1" d="M50.18,50.51A14.53,14.53,0,1,0,35.82,36,14.46,14.46,0,0,0,50.18,50.51Z"/><path class="cls-1" d="M71.56,61.55a11.41,11.41,0,0,0-3.14-5.63,11.1,11.1,0,0,0-8-3.22H39.76a11.11,11.11,0,0,0-8,3.22,11.46,11.46,0,0,0-3.14,5.63c-.38,1.92-2.05,11.14-2.92,15.93a.91.91,0,0,0,.19.74.89.89,0,0,0,.69.32H37.76c0-.29.06-.57.07-.69l.93-8.3a.89.89,0,0,1,1-.79L42,69a.9.9,0,0,1,.78,1l-.9,8c0,.14,0,.32-.06.49h18L59.74,78l-.9-8a.9.9,0,0,1,.78-1l2.27-.26a.89.89,0,0,1,1,.79l.93,8.3a7.05,7.05,0,0,0,.2.69h9.59a.88.88,0,0,0,.68-.32.91.91,0,0,0,.19-.74C73.62,72.69,71.94,63.47,71.56,61.55Z"/></g></svg>