<svg id="Layer_1" data-name="Layer 1" xmlns="http://www.w3.org/2000/svg" viewBox="0 0 100 100"><defs><style>.teacher{fill:#373d3d;}</style></defs><title>teacher</title><path class="teacher" d="M49.91,47.08c-16.18,0-26.51,3.31-26.51,5.58V67c4.42-3,15.52-4.6,26.51-4.6S72,64,76.42,67V52.66C76.42,50.39,66.1,47.08,49.91,47.08Z"/><path class="teacher" d="M91.32,41.74l-40-19.86a2,2,0,0,0-1.78,0L9.35,41.73a2,2,0,0,0,.08,3.63l1.15.5v26a3.92,3.92,0,1,0,3,0V47.18l8,3.49C23.19,46.28,36.63,44,49.91,44c13.64,0,27.44,2.42,28.45,7l12.87-5.67a2,2,0,0,0,.08-3.62Z"/><path class="teacher" d="M49.91,77.14c16.18,0,26.51-3.31,26.51-5.58S66.1,66,49.91,66,23.4,69.28,23.4,71.56,33.73,77.14,49.91,77.14Z"/></svg>