<?xml version="1.0" encoding="utf-8"?>
<!-- Generator: Adobe Illustrator 19.2.1, SVG Export Plug-In . SVG Version: 6.00 Build 0)  -->
<svg version="1.1" id="Layer_1" xmlns="http://www.w3.org/2000/svg" xmlns:xlink="http://www.w3.org/1999/xlink" x="0px" y="0px"
	 viewBox="0 0 80 40" style="enable-background:new 0 0 80 40;" xml:space="preserve" width="80px" height="40px">
<style type="text/css">
	.st3{fill:#FFFFFF;stroke:#373D3D;stroke-width:1;}
	.st4{enable-background:new    ;}
	.st5{fill:#373D3D;}
</style>
<title>BTN - language switcher</title>

	<g id="BTN---language-switcher-PT">
		<g id="BTN---language-switcher" class="st2">
			<g id="Oval-2">
				<circle id="path-1_1_" class="st3" cx="20" cy="20" r="19.5"/>
			</g>
			<g class="st4">
				<path class="st5" d="M12.7,13.3h4.6c2.3,0,4,1.6,4,4c0,2.4-1.7,4-4,4h-2.9V26h-1.8V13.3z M17.1,19.8c1.5,0,2.5-1,2.5-2.5
					s-0.9-2.4-2.4-2.4h-2.6v4.9H17.1z"/>
			</g>
			<g class="st4">
				<path class="st5" d="M24.7,18.4h-1.2V17h1.2v-2.6h1.7V17h2.2v1.4h-2.2v4.1c0,1.8,1.3,2.1,1.9,2.1c0.3,0,0.4,0,0.4,0V26
					c0,0-0.3,0-0.6,0c-1.2,0-3.5-0.4-3.5-3.4V18.4z"/>
			</g>
		</g>
	</g>
	<g id="BTN---language-switcher-EN" transform="translate(40, 0)">
		<g id="BTN---language-switcher" class="st2">
			<g id="Oval-2">
				<circle id="path-1_1_" class="st3" cx="20" cy="20" r="19.5"/>
			</g>
			<g class="st4">
				<path class="st5" d="M11.6,13.3H19v1.5h-5.6v4H18v1.5h-4.6v4.1h5.9V26h-7.7V13.3z"/>
				<path class="st5" d="M21.6,16.9h1.7v1.2c0,0.4,0,0.7,0,0.7h0c0.4-0.8,1.4-2.1,3.4-2.1c2.1,0,3.1,1.2,3.1,3.5V26h-1.7v-5.4
					c0-1.3-0.3-2.3-1.7-2.3c-1.4,0-2.5,0.9-2.9,2.2c-0.1,0.4-0.1,0.8-0.1,1.2V26h-1.7V16.9z"/>
			</g>
		</g>
	</g>

</svg>
