<?xml version="1.0" encoding="UTF-8" standalone="no"?>
<svg width="512px" height="512px" viewBox="0 0 512 512" version="1.1" xmlns="http://www.w3.org/2000/svg" xmlns:xlink="http://www.w3.org/1999/xlink">
    <!-- Generator: Sketch 3.8.3 (29802) - http://www.bohemiancoding.com/sketch -->
    <title>INCORRECT</title>
    <desc>Created with Sketch.</desc>
    <defs></defs>
    <g id="Page-1" stroke="none" stroke-width="1" fill="none" fill-rule="evenodd">
        <g id="INCORRECT">
            <path d="M256,512 C397.384896,512 512,397.384896 512,256 C512,114.615104 397.384896,0 256,0 C114.615104,0 0,114.615104 0,256 C0,397.384896 114.615104,512 256,512 L256,512 Z" id="INCORRECT-path" fill="#FF0000"></path>
            <path d="M256,211.745166 L167.693908,123.439074 C164.525532,120.270698 159.383554,120.271208 156.211764,123.442998 L122.442998,157.211764 C119.270927,160.383836 119.269451,165.524285 122.439074,168.693908 L210.745166,257 L123.439074,344.306092 C120.270698,347.474468 120.271208,352.616446 123.442998,355.788236 L157.211764,389.557002 C160.383836,392.729073 165.524285,392.730549 168.693908,389.560926 L256,302.254834 L344.306092,390.560926 C347.474468,393.729302 352.616446,393.728792 355.788236,390.557002 L389.557002,356.788236 C392.729073,353.616164 392.730549,348.475715 389.560926,345.306092 L301.254834,257 L390.560926,167.693908 C393.729302,164.525532 393.728792,159.383554 390.557002,156.211764 L356.788236,122.442998 C353.616164,119.270927 348.475715,119.269451 345.306092,122.439074 L256,211.745166 L256,211.745166 Z" id="INCORRECT-path" fill="#FFFFFF"></path>
        </g>
    </g>
</svg>