<?xml version="1.0" encoding="UTF-8" standalone="no"?>
<svg width="512px" height="512px" viewBox="0 0 512 512" version="1.1" xmlns="http://www.w3.org/2000/svg" xmlns:xlink="http://www.w3.org/1999/xlink">
    <!-- Generator: Sketch 3.8.3 (29802) - http://www.bohemiancoding.com/sketch -->
    <title>CORRECT</title>
    <desc>Created with Sketch.</desc>
    <defs></defs>
    <g id="Page-1" stroke="none" stroke-width="1" fill="none" fill-rule="evenodd">
        <g id="CORRECT">
            <path d="M256,512 C397.384896,512 512,397.384896 512,256 C512,114.615104 397.384896,-2.84217094e-14 256,-2.84217094e-14 C114.615104,-2.84217094e-14 0,114.615104 0,256 C0,397.384896 114.615104,512 256,512 L256,512 Z" id="CORRECT-path" fill="#5EBA00"></path>
            <path d="M196.25,319.495166 L133.647761,256.892927 C130.476878,253.722044 125.330037,253.717691 122.158246,256.889481 L88.3894808,290.658246 C85.2174091,293.830318 85.2192335,298.974068 88.392927,302.147761 L190.037051,403.791885 C192.987637,406.742471 197.649158,406.951233 200.83821,404.410424 C201.879387,404.015749 202.855581,403.399253 203.693908,402.560926 L425.560926,180.693908 C428.729302,177.525532 428.728792,172.383554 425.557002,169.211764 L391.788236,135.442998 C388.616164,132.270927 383.475715,132.269451 380.306092,135.439074 L196.25,319.495166 L196.25,319.495166 Z" id="CORRECT-path" fill="#FFFFFF"></path>
        </g>
    </g>
</svg>