<?xml version="1.0" encoding="utf-8"?>
<!-- Generator: Adobe Illustrator 18.0.0, SVG Export Plug-In . SVG Version: 6.00 Build 0)  -->
<!DOCTYPE svg PUBLIC "-//W3C//DTD SVG 1.1//EN" "http://www.w3.org/Graphics/SVG/1.1/DTD/svg11.dtd">
<svg version="1.1" id="Layer_1" xmlns="http://www.w3.org/2000/svg" xmlns:xlink="http://www.w3.org/1999/xlink" x="0px" y="0px"
	 viewBox="0 0 112 280" enable-background="new 0 0 112 280" xml:space="preserve" width="112px" height="280px">
	<title>record icon</title>
	<desc>Created with Sketch.</desc>
	<g id="record" fill="#373D3D" transform="translate(19, 14)">
		<path id="Shape" d="M9,18.8c2.9,0,5.2-2.4,5.2-5.3v-8c0-2.9-2.3-5.3-5.2-5.3S3.8,2.6,3.8,5.5v8C3.8,16.5,6.1,18.8,9,18.8L9,18.8
			z M5.6,5.5C5.6,3.6,7.1,2,9,2s3.5,1.6,3.5,3.5v8c0,1.9-1.6,3.5-3.5,3.5s-3.5-1.6-3.5-3.5V5.5L5.6,5.5z"/>
		<path id="Shape_1_" d="M16.2,12.8c-0.5,0-0.9,0.4-0.9,0.9c0,1.7-0.7,3.4-1.9,4.6c-1.2,1.2-2.8,1.9-4.4,1.9s-3.3-0.7-4.4-1.9
			c-1.2-1.2-1.9-2.9-1.9-4.6c0-0.5-0.4-0.9-0.9-0.9s-0.9,0.4-0.9,0.9c0,2.2,0.8,4.2,2.4,5.8c1.3,1.4,3,2.2,4.8,2.4
			c0,0.1,0,0.1,0,0.2v4.1c0,0.5,0.4,0.9,0.9,0.9s0.9-0.4,0.9-0.9V22c0-0.1,0-0.1,0-0.2c1.8-0.2,3.5-1,4.8-2.4
			c1.5-1.6,2.4-3.6,2.4-5.8C17,13.2,16.6,12.8,16.2,12.8L16.2,12.8z"/>
	</g>
	<g id="record-hover" fill="#20A9C4" transform="translate(19, 70)">
		<path id="Shape" d="M9,18.8c2.9,0,5.2-2.4,5.2-5.3v-8c0-2.9-2.3-5.3-5.2-5.3S3.8,2.6,3.8,5.5v8C3.8,16.5,6.1,18.8,9,18.8L9,18.8
			z M5.6,5.5C5.6,3.6,7.1,2,9,2s3.5,1.6,3.5,3.5v8c0,1.9-1.6,3.5-3.5,3.5s-3.5-1.6-3.5-3.5V5.5L5.6,5.5z"/>
		<path id="Shape_1_" d="M16.2,12.8c-0.5,0-0.9,0.4-0.9,0.9c0,1.7-0.7,3.4-1.9,4.6c-1.2,1.2-2.8,1.9-4.4,1.9s-3.3-0.7-4.4-1.9
			c-1.2-1.2-1.9-2.9-1.9-4.6c0-0.5-0.4-0.9-0.9-0.9s-0.9,0.4-0.9,0.9c0,2.2,0.8,4.2,2.4,5.8c1.3,1.4,3,2.2,4.8,2.4
			c0,0.1,0,0.1,0,0.2v4.1c0,0.5,0.4,0.9,0.9,0.9s0.9-0.4,0.9-0.9V22c0-0.1,0-0.1,0-0.2c1.8-0.2,3.5-1,4.8-2.4
			c1.5-1.6,2.4-3.6,2.4-5.8C17,13.2,16.6,12.8,16.2,12.8L16.2,12.8z"/>
	</g>
	<g id="record-use" fill="#D0021B" transform="translate(19, 126)">
		<path id="Shape" d="M9,18.8c2.9,0,5.2-2.4,5.2-5.3v-8c0-2.9-2.3-5.3-5.2-5.3S3.8,2.6,3.8,5.5v8C3.8,16.5,6.1,18.8,9,18.8L9,18.8
			z M5.6,5.5C5.6,3.6,7.1,2,9,2s3.5,1.6,3.5,3.5v8c0,1.9-1.6,3.5-3.5,3.5s-3.5-1.6-3.5-3.5V5.5L5.6,5.5z"/>
		<path id="Shape_1_" d="M16.2,12.8c-0.5,0-0.9,0.4-0.9,0.9c0,1.7-0.7,3.4-1.9,4.6c-1.2,1.2-2.8,1.9-4.4,1.9s-3.3-0.7-4.4-1.9
			c-1.2-1.2-1.9-2.9-1.9-4.6c0-0.5-0.4-0.9-0.9-0.9s-0.9,0.4-0.9,0.9c0,2.2,0.8,4.2,2.4,5.8c1.3,1.4,3,2.2,4.8,2.4
			c0,0.1,0,0.1,0,0.2v4.1c0,0.5,0.4,0.9,0.9,0.9s0.9-0.4,0.9-0.9V22c0-0.1,0-0.1,0-0.2c1.8-0.2,3.5-1,4.8-2.4
			c1.5-1.6,2.4-3.6,2.4-5.8C17,13.2,16.6,12.8,16.2,12.8L16.2,12.8z"/>
	</g>
	<g id="record-inactive" fill="#C5C5C5" transform="translate(19, 182)">
		<path id="Shape" d="M9,18.8c2.9,0,5.2-2.4,5.2-5.3v-8c0-2.9-2.3-5.3-5.2-5.3S3.8,2.6,3.8,5.5v8C3.8,16.5,6.1,18.8,9,18.8L9,18.8
			z M5.6,5.5C5.6,3.6,7.1,2,9,2s3.5,1.6,3.5,3.5v8c0,1.9-1.6,3.5-3.5,3.5s-3.5-1.6-3.5-3.5V5.5L5.6,5.5z"/>
		<path id="Shape_1_" d="M16.2,12.8c-0.5,0-0.9,0.4-0.9,0.9c0,1.7-0.7,3.4-1.9,4.6c-1.2,1.2-2.8,1.9-4.4,1.9s-3.3-0.7-4.4-1.9
			c-1.2-1.2-1.9-2.9-1.9-4.6c0-0.5-0.4-0.9-0.9-0.9s-0.9,0.4-0.9,0.9c0,2.2,0.8,4.2,2.4,5.8c1.3,1.4,3,2.2,4.8,2.4
			c0,0.1,0,0.1,0,0.2v4.1c0,0.5,0.4,0.9,0.9,0.9s0.9-0.4,0.9-0.9V22c0-0.1,0-0.1,0-0.2c1.8-0.2,3.5-1,4.8-2.4
			c1.5-1.6,2.4-3.6,2.4-5.8C17,13.2,16.6,12.8,16.2,12.8L16.2,12.8z"/>
	</g>
	<g id="record-active" fill="#FFFFFF" transform="translate(19, 238)">
		<path id="Shape" d="M9,18.8c2.9,0,5.2-2.4,5.2-5.3v-8c0-2.9-2.3-5.3-5.2-5.3S3.8,2.6,3.8,5.5v8C3.8,16.5,6.1,18.8,9,18.8L9,18.8
			z M5.6,5.5C5.6,3.6,7.1,2,9,2s3.5,1.6,3.5,3.5v8c0,1.9-1.6,3.5-3.5,3.5s-3.5-1.6-3.5-3.5V5.5L5.6,5.5z"/>
		<path id="Shape_1_" d="M16.2,12.8c-0.5,0-0.9,0.4-0.9,0.9c0,1.7-0.7,3.4-1.9,4.6c-1.2,1.2-2.8,1.9-4.4,1.9s-3.3-0.7-4.4-1.9
			c-1.2-1.2-1.9-2.9-1.9-4.6c0-0.5-0.4-0.9-0.9-0.9s-0.9,0.4-0.9,0.9c0,2.2,0.8,4.2,2.4,5.8c1.3,1.4,3,2.2,4.8,2.4
			c0,0.1,0,0.1,0,0.2v4.1c0,0.5,0.4,0.9,0.9,0.9s0.9-0.4,0.9-0.9V22c0-0.1,0-0.1,0-0.2c1.8-0.2,3.5-1,4.8-2.4
			c1.5-1.6,2.4-3.6,2.4-5.8C17,13.2,16.6,12.8,16.2,12.8L16.2,12.8z"/>
	</g>
    <g id="record-active-hover" transform="translate(75, 238)" fill="#FFFFFF">
            <path d="M4.58007812,10.3652344 C4.58007812,5.17138672 4.40673831,0.9921875 8.78613281,0.9921875 C13.1655273,0.9921875 13.3647461,5.56152344 13.3647461,8.88964844 C13.3647461,12.2177734 13.5268554,18.1708984 9.48339844,18.1708984 C5.43994143,18.1708984 4.58007812,15.559082 4.58007812,10.3652344 Z" id="Path-217"></path>
            <path d="M9.01647458,18.8328114 C11.8940339,18.8328114 14.2334237,16.466499 14.2334237,13.5549533 L14.2334237,5.54002434 C14.2334237,2.6284787 11.8940339,0.262166329 9.01647458,0.262166329 C6.13891525,0.262166329 3.79952542,2.6284787 3.79952542,5.54002434 L3.79952542,13.549501 C3.79952542,16.466499 6.13891525,18.8328114 9.01647458,18.8328114 L9.01647458,18.8328114 Z M5.55681356,5.54002434 C5.55681356,3.59354158 7.11091525,2.00691278 9.01647458,2.00691278 C10.9220339,2.00691278 12.4761356,3.59354158 12.4761356,5.54002434 L12.4761356,13.549501 C12.4761356,15.4959838 10.9220339,17.0826126 9.01647458,17.0826126 C7.11091525,17.0826126 5.55681356,15.4959838 5.55681356,13.549501 L5.55681356,5.54002434 L5.55681356,5.54002434 Z" id="Shape"></path>
            <path d="M16.1609492,12.8188884 C15.6776949,12.8188884 15.2823051,13.2114564 15.2823051,13.6912617 C15.2823051,15.4196511 14.6178305,17.0444462 13.420678,18.2712211 C12.2235254,19.4925436 10.6474576,20.1631805 8.97254237,20.1631805 C7.29762712,20.1631805 5.72155932,19.4925436 4.52440678,18.2712211 C3.32176271,17.0444462 2.66277966,15.4196511 2.66277966,13.6912617 C2.66277966,13.2114564 2.26738983,12.8188884 1.78413559,12.8188884 C1.30088136,12.8188884 0.905491525,13.2114564 0.905491525,13.6912617 C0.905491525,15.8721947 1.74569492,17.9331765 3.26684746,19.4870913 C4.59030508,20.8392698 6.28718644,21.662572 8.11586441,21.8643083 C8.10488136,21.9188316 8.09938983,21.9788073 8.09938983,22.038783 L8.09938983,26.1825558 C8.09938983,26.6623611 8.49477966,27.054929 8.9780339,27.054929 C9.46128814,27.054929 9.85667797,26.6623611 9.85667797,26.1825558 L9.85667797,22.038783 C9.85667797,21.9788073 9.85118644,21.924284 9.84020339,21.8643083 C11.6688814,21.6680243 13.3657627,20.8392698 14.6892203,19.4870913 C16.2103729,17.9331765 17.0505763,15.8721947 17.0505763,13.6912617 C17.0395932,13.2060041 16.6496949,12.8188884 16.1609492,12.8188884 L16.1609492,12.8188884 Z" id="Shape"></path>
        </g>
</svg>
