<?xml version="1.0" encoding="utf-8"?>
<!-- Generator: Adobe Illustrator 18.0.0, SVG Export Plug-In . SVG Version: 6.00 Build 0)  -->
<!DOCTYPE svg PUBLIC "-//W3C//DTD SVG 1.1//EN" "http://www.w3.org/Graphics/SVG/1.1/DTD/svg11.dtd">
<svg version="1.1" xmlns="http://www.w3.org/2000/svg" xmlns:xlink="http://www.w3.org/1999/xlink" x="0px" y="0px"
	 viewBox="0 0 512 1536" enable-background="new 0 0 512 1536" xml:space="preserve" width="512px" height="1536px">
<g id="defaut">
	<g id="Page-1">
		<g id="rewind">
			<path id="Triangle-1-Copy" d="M183.7,257.7c-1.3-0.8-1.3-2.2,0-3l144-89c1.3-0.8,2.4-0.2,2.4,1.4v178.3c0,1.6-1.1,2.2-2.4,1.4
				L183.7,257.7z"/>
			<path id="Rectangle-49" d="M169.2,171h20.4c1.6,0,2.9,1.3,2.9,2.9v164.4c0,1.6-1.3,2.9-2.9,2.9h-20.4c-1.6,0-2.9-1.3-2.9-2.9
				V173.9C166.4,172.3,167.7,171,169.2,171z"/>
		</g>
	</g>
	<g id="Page-1_1_">
		<g id="rewind_hover">
			<path id="Triangle-1-Copy_1_" fill="#20A9C4" d="M183.7,769.7c-1.3-0.8-1.3-2.2,0-3l144-89c1.3-0.8,2.4-0.2,2.4,1.4v178.3
				c0,1.6-1.1,2.2-2.4,1.4L183.7,769.7z"/>
			<path id="Rectangle-49_1_" fill="#20A9C4" d="M169.2,683h20.4c1.6,0,2.9,1.3,2.9,2.9v164.4c0,1.6-1.3,2.9-2.9,2.9h-20.4
				c-1.6,0-2.9-1.3-2.9-2.9V685.9C166.4,684.3,167.7,683,169.2,683z"/>
		</g>
	</g>
	<g id="Page-1_2_">
		<g id="rewind_active">
			<path id="Triangle-1-Copy_2_" fill="#FFFFFF" d="M183.7,1281.7c-1.3-0.8-1.3-2.2,0-3l144-89c1.3-0.8,2.4-0.2,2.4,1.4v178.3
				c0,1.6-1.1,2.2-2.4,1.4L183.7,1281.7z"/>
			<path id="Rectangle-49_2_" fill="#FFFFFF" d="M169.2,1195h20.4c1.6,0,2.9,1.3,2.9,2.9v164.4c0,1.6-1.3,2.9-2.9,2.9h-20.4
				c-1.6,0-2.9-1.3-2.9-2.9v-164.4C166.4,1196.3,167.7,1195,169.2,1195z"/>
		</g>
	</g>
</g>
</svg>
