<?xml version="1.0" encoding="UTF-8" standalone="no"?>
<svg width="24px" height="100px" viewBox="0 0 24 100" version="1.1" xmlns="http://www.w3.org/2000/svg" xmlns:xlink="http://www.w3.org/1999/xlink">
    <!-- Generator: Sketch 3.8.3 (29802) - http://www.bohemiancoding.com/sketch -->
    <title>icon-volume-mute</title>
    <desc>Created with Sketch.</desc>
    <defs></defs>
    <g id="Symbols" stroke="none" stroke-width="1" fill="none" fill-rule="evenodd">
        <g id="768/video-player/button-volume-muted-active" transform="translate(-13.000000, -13.000000)">
            <g id="320/video-player/button-volume-muted">
                <g>
                    <g id="320/audio-button/button-volume">
                        <g id="icon-volume-mute" transform="translate(12.805556, 25.666701)">
                        <!-- <g id="icon-volume-mute" transform="translate(12.805556, 12.666701)"> -->
                            <g id="Layer_2_copy" transform="translate(0.244759, 0.292111)">
                                <g id="Group" transform="translate(0.846436, 2.136953)" fill="#FFFFFF">
                                    <path d="M11.1032495,1.01878008 C11.1032495,0.660964637 10.6650943,0.482056916 10.4111635,0.730539862 L4.5259434,6.49534421 C4.45125786,6.5698891 4.34669811,6.60964637 4.24213836,6.60964637 L0.403301887,6.60964637 C0.179245283,6.60964637 0,6.79352375 0,7.01218874 L0,12.8614773 C0,13.0851119 0.179245283,13.2640197 0.403301887,13.2640197 L4.21226415,13.2640197 L11.1032495,6.40092069 L11.1032495,1.01878008 L11.1032495,1.01878008 Z" id="Shape"></path>
                                    <path d="M10.4111635,19.1331869 C10.6650943,19.3816698 11.1032495,19.2027621 11.1032495,18.8449466 L11.1032495,13.1497175 L7.73244235,16.5141766 L10.4111635,19.1331869 L10.4111635,19.1331869 Z" id="Shape"></path>
                                    <path d="M15.9030398,9.93931785 C15.9030398,11.3904583 15.0267296,12.6378426 13.7819706,13.1994141 C13.6375786,13.2640197 13.5429769,13.4081398 13.5429769,13.5621992 L13.5429769,14.6704331 C13.5429769,14.9437644 13.8218029,15.1425507 14.0856918,15.0530969 C16.206761,14.3175874 17.740304,12.3048755 17.740304,9.93931785 C17.740304,8.95532538 17.4764151,8.03096882 17.0133648,7.23085374 L15.64413,8.59750994 C15.8134172,9.01496129 15.9030398,9.46720025 15.9030398,9.93931785 L15.9030398,9.93931785 Z" id="Shape"></path>
                                    <path d="M19.0497904,5.20323289 C20.0007862,6.5450408 20.5584382,8.17508893 20.5584382,9.93931785 C20.5584382,13.9349236 17.6755765,17.2795041 13.8815514,18.0100439 C13.692348,18.0448316 13.5429769,18.2088303 13.5429769,18.402647 L13.5429769,19.451245 C13.5429769,19.699728 13.7769916,19.888575 14.0209644,19.8488177 C18.7659853,19.0337937 22.3907233,14.9040071 22.3907233,9.93931785 C22.3907233,7.66818372 21.6339099,5.57595731 20.3592767,3.89124294 L19.0497904,5.20323289 L19.0497904,5.20323289 Z" id="Shape"></path>
                                    <path d="M14.0209644,0.0298179535 C13.7769916,-0.00993931785 13.5429769,0.173938062 13.5429769,0.427390668 L13.5429769,1.4759887 C13.5429769,1.6698054 13.687369,1.83380414 13.8815514,1.86859176 C14.3495807,1.95804562 14.802673,2.08725675 15.2408281,2.25125549 L16.6399371,0.854781335 C15.8183962,0.472117598 14.942086,0.188847039 14.0209644,0.0298179535 L14.0209644,0.0298179535 Z" id="Shape"></path>
                                </g>
                                <path d="M0.77672956,23.6804248 L0.144392034,23.0492781 C0.00995807128,22.9150973 0.00995807128,22.6914626 0.144392034,22.5572819 L22.629717,0.109332496 C22.7641509,-0.0248482946 22.9882075,-0.0248482946 23.1226415,0.109332496 L23.754979,0.745448839 C23.889413,0.87962963 23.889413,1.10326428 23.754979,1.23744507 L1.26965409,23.6804248 C1.13522013,23.8195752 0.911163522,23.8195752 0.77672956,23.6804248 L0.77672956,23.6804248 Z" id="Shape" fill="#E2122B"></path>
                            </g>
                        </g>
                    </g>
                </g>
            </g>
        </g>
    </g>
    <g id="Symbols-hover" stroke="none" stroke-width="1" fill="none" fill-rule="evenodd">
        <g id="768/video-player/button-volume-muted-hover" transform="translate(-13.000000, -13.000000)" fill="#20A9C4">
            <g id="768/video-player/button-volume-muted-active">
                <g>
                    <g id="320/video-player/button-volume-muted">
                        <g id="320/audio-button/button-volume">
                            <g id="icon-volume-mute" transform="translate(12.805556, 75.666701)">
                                <g id="Layer_2_copy" transform="translate(0.244759, 0.292111)">
                                    <g id="Group" transform="translate(0.846436, 2.136953)">
                                        <path d="M11.1032495,1.01878008 C11.1032495,0.660964637 10.6650943,0.482056916 10.4111635,0.730539862 L4.5259434,6.49534421 C4.45125786,6.5698891 4.34669811,6.60964637 4.24213836,6.60964637 L0.403301887,6.60964637 C0.179245283,6.60964637 0,6.79352375 0,7.01218874 L0,12.8614773 C0,13.0851119 0.179245283,13.2640197 0.403301887,13.2640197 L4.21226415,13.2640197 L11.1032495,6.40092069 L11.1032495,1.01878008 L11.1032495,1.01878008 Z" id="Shape"></path>
                                        <path d="M10.4111635,19.1331869 C10.6650943,19.3816698 11.1032495,19.2027621 11.1032495,18.8449466 L11.1032495,13.1497175 L7.73244235,16.5141766 L10.4111635,19.1331869 L10.4111635,19.1331869 Z" id="Shape"></path>
                                        <path d="M15.9030398,9.93931785 C15.9030398,11.3904583 15.0267296,12.6378426 13.7819706,13.1994141 C13.6375786,13.2640197 13.5429769,13.4081398 13.5429769,13.5621992 L13.5429769,14.6704331 C13.5429769,14.9437644 13.8218029,15.1425507 14.0856918,15.0530969 C16.206761,14.3175874 17.740304,12.3048755 17.740304,9.93931785 C17.740304,8.95532538 17.4764151,8.03096882 17.0133648,7.23085374 L15.64413,8.59750994 C15.8134172,9.01496129 15.9030398,9.46720025 15.9030398,9.93931785 L15.9030398,9.93931785 Z" id="Shape"></path>
                                        <path d="M19.0497904,5.20323289 C20.0007862,6.5450408 20.5584382,8.17508893 20.5584382,9.93931785 C20.5584382,13.9349236 17.6755765,17.2795041 13.8815514,18.0100439 C13.692348,18.0448316 13.5429769,18.2088303 13.5429769,18.402647 L13.5429769,19.451245 C13.5429769,19.699728 13.7769916,19.888575 14.0209644,19.8488177 C18.7659853,19.0337937 22.3907233,14.9040071 22.3907233,9.93931785 C22.3907233,7.66818372 21.6339099,5.57595731 20.3592767,3.89124294 L19.0497904,5.20323289 L19.0497904,5.20323289 Z" id="Shape"></path>
                                        <path d="M14.0209644,0.0298179535 C13.7769916,-0.00993931785 13.5429769,0.173938062 13.5429769,0.427390668 L13.5429769,1.4759887 C13.5429769,1.6698054 13.687369,1.83380414 13.8815514,1.86859176 C14.3495807,1.95804562 14.802673,2.08725675 15.2408281,2.25125549 L16.6399371,0.854781335 C15.8183962,0.472117598 14.942086,0.188847039 14.0209644,0.0298179535 L14.0209644,0.0298179535 Z" id="Shape"></path>
                                    </g>
                                    <path d="M0.77672956,23.6804248 L0.144392034,23.0492781 C0.00995807128,22.9150973 0.00995807128,22.6914626 0.144392034,22.5572819 L22.629717,0.109332496 C22.7641509,-0.0248482946 22.9882075,-0.0248482946 23.1226415,0.109332496 L23.754979,0.745448839 C23.889413,0.87962963 23.889413,1.10326428 23.754979,1.23744507 L1.26965409,23.6804248 C1.13522013,23.8195752 0.911163522,23.8195752 0.77672956,23.6804248 L0.77672956,23.6804248 Z" id="Shape"></path>
                                </g>
                            </g>
                        </g>
                    </g>
                </g>
            </g>
        </g>
    </g>
</svg>