<?xml version="1.0" encoding="UTF-8" standalone="no"?>
<svg width="24px" height="100px" viewBox="0 0 24 100" version="1.1" xmlns="http://www.w3.org/2000/svg" xmlns:xlink="http://www.w3.org/1999/xlink">
    <!-- Generator: Sketch 3.8.3 (29802) - http://www.bohemiancoding.com/sketch -->
    <title>icon-volume</title>
    <desc>Created with Sketch.</desc>
    <defs></defs>
    <g id="Symbols" stroke="none" stroke-width="1" fill="none" fill-rule="evenodd">
        <g id="768/video-player/button-volume-active" transform="translate(-13.000000, -15.000000)" fill="#FFFFFF">
            <g id="icon-volume">
                <g transform="translate(13.888889, 30.277778)">
                    <g id="Layer_2">
                        <path d="M4.20444444,6.44388889 L0.399012346,6.44388889 C0.178643912,6.44388889 8.8817842e-16,6.61974149 8.8817842e-16,6.83666667 L8.8817842e-16,12.5581944 C8.8817842e-16,12.7751196 0.178643912,12.9509722 0.399012346,12.9509722 L4.20148148,12.9509722 C4.30582339,12.9510521 4.40598235,12.9913622 4.48049383,13.0632639 L10.3209877,18.6904861 C10.4357449,18.8009832 10.6065964,18.8330246 10.7545881,18.7718033 C10.9025797,18.7105819 10.9988902,18.5680205 10.9990123,18.41 L10.9990123,0.97125 C10.998692,0.813317824 10.9023086,0.67093513 10.754361,0.609838054 C10.6064134,0.548740978 10.4356806,0.580814218 10.3209877,0.69125 L4.4854321,6.33013889 C4.41067272,6.40304709 4.30968064,6.44393091 4.20444444,6.44388889 L4.20444444,6.44388889 Z" id="Shape"></path>
                        <path d="M13.4483951,5.06722222 L13.4483951,6.15270833 C13.447521,6.30523682 13.5373114,6.44418566 13.6780247,6.50805556 C14.9539786,7.07200337 15.7748796,8.32061679 15.7748796,9.69743056 C15.7748796,11.0742443 14.9539786,12.3228577 13.6780247,12.8868056 C13.5373114,12.9506754 13.447521,13.0896243 13.4483951,13.2421528 L13.4483951,14.3276389 C13.4484531,14.4541789 13.5104397,14.5729412 13.6149115,14.6466733 C13.7193834,14.7204054 13.8535431,14.7400756 13.9753086,14.6995139 C16.1429361,13.9631767 17.597461,11.9544241 17.597461,9.6971875 C17.597461,7.43995094 16.1429361,5.43119828 13.9753086,4.69486111 C13.8534606,4.65427185 13.7192071,4.67399756 13.6147109,4.74784334 C13.5102146,4.82168912 13.4482939,4.94059643 13.4483951,5.06722222 L13.4483951,5.06722222 Z" id="Shape"></path>
                        <path d="M13.4483951,0.392777778 L13.4483951,1.41895833 C13.4491033,1.60775367 13.5858447,1.76948339 13.774321,1.80444444 C17.5377778,2.51951389 20.3916049,5.78666667 20.3916049,9.69743056 C20.3916049,13.6081944 17.5402469,16.8748611 13.774321,17.5904167 C13.5858447,17.6253777 13.4491033,17.7871074 13.4483951,17.9759028 L13.4483951,19.0020833 C13.4481263,19.1184004 13.5001165,19.2288826 13.5904221,19.3038992 C13.6807278,19.3789158 13.8001071,19.4107896 13.9165432,19.3909722 C18.6212346,18.5971528 22.2128395,14.5531944 22.2128395,9.699375 C22.2128395,4.84555556 18.6207407,0.801597222 13.9160494,0.00583333333 C13.8000294,-0.0137660502 13.6811294,0.0179358868 13.591018,0.0924954383 C13.5009066,0.16705499 13.4487336,0.276901523 13.4483951,0.392777778 L13.4483951,0.392777778 Z" id="Shape"></path>
                    </g>
                </g>
            </g>
        </g>
    </g>
    <g id="Symbols" stroke="none" stroke-width="1" fill="none" fill-rule="evenodd">
        <g id="768/video-player/button-volume-active-hover" transform="translate(-13.000000, -15.000000)" fill="#20A9C4">
            <g id="icon-volume-hover">
                <g transform="translate(13.888889, 80.277778)">
                    <g id="Layer_2">
                        <path d="M4.20444444,6.44388889 L0.399012346,6.44388889 C0.178643912,6.44388889 8.8817842e-16,6.61974149 8.8817842e-16,6.83666667 L8.8817842e-16,12.5581944 C8.8817842e-16,12.7751196 0.178643912,12.9509722 0.399012346,12.9509722 L4.20148148,12.9509722 C4.30582339,12.9510521 4.40598235,12.9913622 4.48049383,13.0632639 L10.3209877,18.6904861 C10.4357449,18.8009832 10.6065964,18.8330246 10.7545881,18.7718033 C10.9025797,18.7105819 10.9988902,18.5680205 10.9990123,18.41 L10.9990123,0.97125 C10.998692,0.813317824 10.9023086,0.67093513 10.754361,0.609838054 C10.6064134,0.548740978 10.4356806,0.580814218 10.3209877,0.69125 L4.4854321,6.33013889 C4.41067272,6.40304709 4.30968064,6.44393091 4.20444444,6.44388889 L4.20444444,6.44388889 Z" id="Shape"></path>
                        <path d="M13.4483951,5.06722222 L13.4483951,6.15270833 C13.447521,6.30523682 13.5373114,6.44418566 13.6780247,6.50805556 C14.9539786,7.07200337 15.7748796,8.32061679 15.7748796,9.69743056 C15.7748796,11.0742443 14.9539786,12.3228577 13.6780247,12.8868056 C13.5373114,12.9506754 13.447521,13.0896243 13.4483951,13.2421528 L13.4483951,14.3276389 C13.4484531,14.4541789 13.5104397,14.5729412 13.6149115,14.6466733 C13.7193834,14.7204054 13.8535431,14.7400756 13.9753086,14.6995139 C16.1429361,13.9631767 17.597461,11.9544241 17.597461,9.6971875 C17.597461,7.43995094 16.1429361,5.43119828 13.9753086,4.69486111 C13.8534606,4.65427185 13.7192071,4.67399756 13.6147109,4.74784334 C13.5102146,4.82168912 13.4482939,4.94059643 13.4483951,5.06722222 L13.4483951,5.06722222 Z" id="Shape"></path>
                        <path d="M13.4483951,0.392777778 L13.4483951,1.41895833 C13.4491033,1.60775367 13.5858447,1.76948339 13.774321,1.80444444 C17.5377778,2.51951389 20.3916049,5.78666667 20.3916049,9.69743056 C20.3916049,13.6081944 17.5402469,16.8748611 13.774321,17.5904167 C13.5858447,17.6253777 13.4491033,17.7871074 13.4483951,17.9759028 L13.4483951,19.0020833 C13.4481263,19.1184004 13.5001165,19.2288826 13.5904221,19.3038992 C13.6807278,19.3789158 13.8001071,19.4107896 13.9165432,19.3909722 C18.6212346,18.5971528 22.2128395,14.5531944 22.2128395,9.699375 C22.2128395,4.84555556 18.6207407,0.801597222 13.9160494,0.00583333333 C13.8000294,-0.0137660502 13.6811294,0.0179358868 13.591018,0.0924954383 C13.5009066,0.16705499 13.4487336,0.276901523 13.4483951,0.392777778 L13.4483951,0.392777778 Z" id="Shape"></path>
                    </g>
                </g>
            </g>
        </g>
    </g>
</svg>