<?xml version="1.0" encoding="UTF-8" standalone="no"?>
<svg width="138px" height="46px" viewBox="0 0 138 46" version="1.1" xmlns="http://www.w3.org/2000/svg" xmlns:xlink="http://www.w3.org/1999/xlink">
    <!-- Generator: Sketch 3.8.3 (29802) - http://www.bohemiancoding.com/sketch -->
    <title>arrow-move-up</title>
    <desc>Created with Sketch.</desc>
    <defs></defs>
    <g id="arrow-up" transform="translate(-2.000000, -27.000000)" fill="#373D3D">
        <path d="M25.0741231,45.9075966 L37.5,45.9075966 L37.5,54.0097891 L25.0741231,54.0097891 L25.0741231,59.8627451 L12.5,49.823819 L25.0741231,40.372549 L25.0741231,45.9075966 Z" id="Combined-Shape-Copy" transform="translate(25.000000, 50.117647) scale(-1, 1) rotate(90.000000) translate(-25.000000, -50.117647) "></path>
    </g>
    <g id="arrow-up-hover" transform="translate(44.000000, -27.000000)" fill="#FFFFFF">
        <path d="M25.0741231,45.9075966 L37.5,45.9075966 L37.5,54.0097891 L25.0741231,54.0097891 L25.0741231,59.8627451 L12.5,49.823819 L25.0741231,40.372549 L25.0741231,45.9075966 Z" id="Combined-Shape-Copy" transform="translate(25.000000, 50.117647) scale(-1, 1) rotate(90.000000) translate(-25.000000, -50.117647) "></path>
    </g>
    <g id="arrow-up-selected" transform="translate(90.000000, -27.000000)" fill="#DDF32B">
        <path d="M25.0741231,45.9075966 L37.5,45.9075966 L37.5,54.0097891 L25.0741231,54.0097891 L25.0741231,59.8627451 L12.5,49.823819 L25.0741231,40.372549 L25.0741231,45.9075966 Z" id="Combined-Shape-Copy" transform="translate(25.000000, 50.117647) scale(-1, 1) rotate(90.000000) translate(-25.000000, -50.117647) "></path>
    </g>
</svg>