<?xml version="1.0" encoding="UTF-8" standalone="no"?>
<svg width="120px" height="90px" viewBox="0 0 120 90" version="1.1" xmlns="http://www.w3.org/2000/svg" xmlns:xlink="http://www.w3.org/1999/xlink">
    <!-- Generator: Sketch 3.8.3 (29802) - http://www.bohemiancoding.com/sketch -->
    <title>Ordering arrows</title>
    <desc>Created with Sketch.</desc>
    <defs></defs>
    <g id="arrow-down" transform="translate(-15.000000, -38.235294)" fill="#373D3D">
        <path d="M25.0741231,46.9075966 L37.5,46.9075966 L37.5,55.0097891 L25.0741231,55.0097891 L25.0741231,60.8627451 L12.5,50.823819 L25.0741231,41.372549 L25.0741231,46.9075966 Z" id="Combined-Shape-Copy" transform="translate(25.000000, 51.117647) scale(-1, 1) rotate(-90.000000) translate(-25.000000, -51.117647)"></path>
    </g>
    <g id="arrow-down-hover" transform="translate(-15.000000, -8.235294)" fill="#FFFFFF">
        <path d="M25.0741231,46.9075966 L37.5,46.9075966 L37.5,55.0097891 L25.0741231,55.0097891 L25.0741231,60.8627451 L12.5,50.823819 L25.0741231,41.372549 L25.0741231,46.9075966 Z" id="Combined-Shape-Copy" transform="translate(25.000000, 51.117647) scale(-1, 1) rotate(-90.000000) translate(-25.000000, -51.117647)"></path>
    </g>
    <g id="arrow-down-selected" transform="translate(-15.000000, 22.235294)" fill="#DDF32B">
        <path d="M25.0741231,46.9075966 L37.5,46.9075966 L37.5,55.0097891 L25.0741231,55.0097891 L25.0741231,60.8627451 L12.5,50.823819 L25.0741231,41.372549 L25.0741231,46.9075966 Z" id="Combined-Shape-Copy" transform="translate(25.000000, 51.117647) scale(-1, 1) rotate(-90.000000) translate(-25.000000, -51.117647)"></path>
    </g>
    <g id="arrow-up" transform="translate(15.000000, -37.000000)" fill="#373D3D">
        <path d="M25.0741231,45.9075966 L37.5,45.9075966 L37.5,54.0097891 L25.0741231,54.0097891 L25.0741231,59.8627451 L12.5,49.823819 L25.0741231,40.372549 L25.0741231,45.9075966 Z" id="Combined-Shape-Copy" transform="translate(25.000000, 50.117647) scale(-1, 1) rotate(90.000000) translate(-25.000000, -50.117647) "></path>
    </g>
    <g id="arrow-up-hover" transform="translate(15.000000, -7.000000)" fill="#FFFFFF">
        <path d="M25.0741231,45.9075966 L37.5,45.9075966 L37.5,54.0097891 L25.0741231,54.0097891 L25.0741231,59.8627451 L12.5,49.823819 L25.0741231,40.372549 L25.0741231,45.9075966 Z" id="Combined-Shape-Copy" transform="translate(25.000000, 50.117647) scale(-1, 1) rotate(90.000000) translate(-25.000000, -50.117647) "></path>
    </g>
    <g id="arrow-up-selected" transform="translate(15.000000, 23.000000)" fill="#DDF32B">
        <path d="M25.0741231,45.9075966 L37.5,45.9075966 L37.5,54.0097891 L25.0741231,54.0097891 L25.0741231,59.8627451 L12.5,49.823819 L25.0741231,40.372549 L25.0741231,45.9075966 Z" id="Combined-Shape-Copy" transform="translate(25.000000, 50.117647) scale(-1, 1) rotate(90.000000) translate(-25.000000, -50.117647) "></path>
    </g>
    <g id="arrow-left" transform="translate(10.000000, -10.000000)" fill="#373D3D">
        <path d="M61.0652283,15.1118448 L72,15.1118448 L72,22.5945537 L61.0652283,22.5945537 L61.0652283,28 L50,18.7286377 L61.0652283,10 L61.0652283,15.1118448 Z" id="arrow-move-left"></path>
    </g>
    <g id="arrow-left-hover" transform="translate(10.000000, 20.000000)" fill="#FFFFFF">
        <path d="M61.0652283,15.1118448 L72,15.1118448 L72,22.5945537 L61.0652283,22.5945537 L61.0652283,28 L50,18.7286377 L61.0652283,10 L61.0652283,15.1118448 Z" id="arrow-move-left"></path>
    </g>
    <g id="arrow-left-selected" transform="translate(10.000000, 50.000000)" fill="#DDF32B">
        <path d="M61.0652283,15.1118448 L72,15.1118448 L72,22.5945537 L61.0652283,22.5945537 L61.0652283,28 L50,18.7286377 L61.0652283,10 L61.0652283,15.1118448 Z" id="arrow-move-left"></path>
    </g>
    <g id="arrow-right" transform="translate(43.000000, -10.000000)" fill="#373D3D">
        <path d="M64.0652283,15.1118448 L75,15.1118448 L75,22.5945537 L64.0652283,22.5945537 L64.0652283,28 L53,18.7286377 L64.0652283,10 L64.0652283,15.1118448 Z" id="arrow-move-right" transform="translate(64.000000, 19.000000) scale(-1, 1) translate(-64.000000, -19.000000) "></path>
    </g>
    <g id="arrow-right-selected" transform="translate(43.000000, 20.000000)" fill="#FFFFFF">
        <path d="M64.0652283,15.1118448 L75,15.1118448 L75,22.5945537 L64.0652283,22.5945537 L64.0652283,28 L53,18.7286377 L64.0652283,10 L64.0652283,15.1118448 Z" id="arrow-move-right" transform="translate(64.000000, 19.000000) scale(-1, 1) translate(-64.000000, -19.000000) "></path>
    </g>
    <g id="arrow-right-hover" transform="translate(43.000000, 50.000000)" fill="#DDF32B">
        <path d="M64.0652283,15.1118448 L75,15.1118448 L75,22.5945537 L64.0652283,22.5945537 L64.0652283,28 L53,18.7286377 L64.0652283,10 L64.0652283,15.1118448 Z" id="arrow-move-right" transform="translate(64.000000, 19.000000) scale(-1, 1) translate(-64.000000, -19.000000) "></path>
    </g>
</svg>