<svg id="Layer_1" xmlns="http://www.w3.org/2000/svg" viewBox="0 0 28 32"><style>.st0{fill:#E9E9E9;}</style><title>grid</title><g id="Flashcards"><g id="d39-Presentation---Flash-Cards---Single---Hide-all"><path id="grid" class="st0" d="M2 2h4c1.1 0 2 .9 2 2v4c0 1.1-.9 2-2 2H2c-1.1 0-2-.9-2-2V4c0-1.1.9-2 2-2zm10 0h4c1.1 0 2 .9 2 2v4c0 1.1-.9 2-2 2h-4c-1.1 0-2-.9-2-2V4c0-1.1.9-2 2-2zm10 0h4c1.1 0 2 .9 2 2v4c0 1.1-.9 2-2 2h-4c-1.1 0-2-.9-2-2V4c0-1.1.9-2 2-2zM2 12h4c1.1 0 2 .9 2 2v4c0 1.1-.9 2-2 2H2c-1.1 0-2-.9-2-2v-4c0-1.1.9-2 2-2zm10 0h4c1.1 0 2 .9 2 2v4c0 1.1-.9 2-2 2h-4c-1.1 0-2-.9-2-2v-4c0-1.1.9-2 2-2zm10 0h4c1.1 0 2 .9 2 2v4c0 1.1-.9 2-2 2h-4c-1.1 0-2-.9-2-2v-4c0-1.1.9-2 2-2zM2 22h4c1.1 0 2 .9 2 2v4c0 1.1-.9 2-2 2H2c-1.1 0-2-.9-2-2v-4c0-1.1.9-2 2-2zm10 0h4c1.1 0 2 .9 2 2v4c0 1.1-.9 2-2 2h-4c-1.1 0-2-.9-2-2v-4c0-1.1.9-2 2-2zm10 0h4c1.1 0 2 .9 2 2v4c0 1.1-.9 2-2 2h-4c-1.1 0-2-.9-2-2v-4c0-1.1.9-2 2-2z"/></g></g></svg>