<svg id="Layer_1" xmlns="http://www.w3.org/2000/svg" viewBox="0 0 28 32"><style>.st0{fill:#E9E9E9;}</style><title>single</title><g id="Flashcards"><g id="d39-Presentation---Flash-Cards---Single---Hide-all"><path id="single" class="st0" d="M5 26h2c1.1 0 2 .9 2 2v2c0 1.1-.9 2-2 2H5c-1.1 0-2-.9-2-2v-2c0-1.1.9-2 2-2zm8 0h2c1.1 0 2 .9 2 2v2c0 1.1-.9 2-2 2h-2c-1.1 0-2-.9-2-2v-2c0-1.1.9-2 2-2zm8 0h2c1.1 0 2 .9 2 2v2c0 1.1-.9 2-2 2h-2c-1.1 0-2-.9-2-2v-2c0-1.1.9-2 2-2zM3 0h22c1.1 0 2 .9 2 2v20c0 1.1-.9 2-2 2H3c-1.1 0-2-.9-2-2V2c0-1.1.9-2 2-2z"/></g></g></svg>